<svg width="55" height="64" viewBox="0 0 55 64" fill="none" xmlns="http://www.w3.org/2000/svg">
<path d="M27.485 48.7967L27.4418 48.3846C26.7255 43.4188 22.0822 39.968 17.0707 40.677L17.0017 41.318C16.9557 41.9606 16.9787 42.6069 17.0709 43.2458C17.7872 48.2116 22.4305 51.6624 27.442 50.9534L27.485 50.5203M27.485 48.7967L27.4509 49.2545C27.4342 49.6264 27.4405 50.0029 27.4711 50.3823L27.485 50.5203M27.485 48.7967L27.511 49.0256C27.5417 49.454 27.5417 49.884 27.511 50.3124L27.485 50.5203M27.485 48.7967L27.493 48.7003C27.9265 44.6643 31.0718 41.2784 35.3122 40.6784C35.9571 40.5872 36.6094 40.5644 37.2579 40.6101L37.9049 40.6786C38.6212 45.6443 35.1393 50.2446 30.1279 50.9536C29.483 51.0448 28.8308 51.0676 28.1822 51.0219L27.5353 50.9534L27.485 50.5203M6.46888 23.0196V51.0458L2.29419 57.3078C1.99436 57.7575 1.91896 58.3205 2.0899 58.8333C2.39582 59.7511 3.3878 60.2471 4.30556 59.9412L9.97214 58.0523C21.2166 62.5501 33.7604 62.5501 45.0048 58.0523L50.6714 59.9412C51.1842 60.1121 51.7472 60.0367 52.197 59.7368C53.0019 59.2002 53.2194 58.1127 52.6828 57.3078L48.5081 51.0458V23.0196H6.46888ZM27.4416 30.0261C31.4918 33.0362 32.313 38.7291 29.2758 42.7417C28.885 43.2581 28.4401 43.7312 27.949 44.1533L27.4426 44.558C23.3925 41.5481 22.5713 35.8551 25.6085 31.8425C26.1295 31.154 26.7468 30.5425 27.4416 30.0261ZM48.5081 16.0131C50.4429 16.0131 52.0114 17.5815 52.0114 19.5163V23.0196H2.96561V19.5163C2.96561 17.5815 4.53407 16.0131 6.46888 16.0131H48.5081ZM27.4885 2C35.5359 6.32354 40.8104 10.995 43.3121 16.0145H11.6649C14.1665 10.995 19.4411 6.32354 27.4885 2Z" stroke="black" stroke-width="4" stroke-linejoin="round"/>
</svg>
