<svg width="48" height="48" viewBox="0 0 48 48" fill="none" xmlns="http://www.w3.org/2000/svg">
<path d="M42.4201 31.78C41.1477 34.789 39.1576 37.4404 36.6238 39.5026C34.09 41.5648 31.0896 42.9749 27.8849 43.6096C24.6803 44.2443 21.3689 44.0843 18.2404 43.1436C15.1118 42.2029 12.2613 40.5101 9.93811 38.2133C7.6149 35.9165 5.8897 33.0855 4.91334 29.9679C3.93699 26.8503 3.7392 23.541 4.33727 20.3293C4.93534 17.1176 6.31107 14.1013 8.34417 11.5441C10.3773 8.98686 13.0058 6.96664 16.0001 5.66M44.0001 24C44.0001 21.3736 43.4828 18.7728 42.4777 16.3463C41.4726 13.9198 39.9994 11.715 38.1422 9.85786C36.285 8.00069 34.0803 6.5275 31.6537 5.52241C29.2272 4.51732 26.6265 4 24.0001 4V24H44.0001Z" stroke="#1E1E1E" stroke-width="4" stroke-linecap="round" stroke-linejoin="round"/>
</svg>
