<svg width="25" height="25" viewBox="0 0 25 25" fill="none" xmlns="http://www.w3.org/2000/svg">
<g clip-path="url(#clip0_38_594)">
<g clip-path="url(#clip1_38_594)">
<path d="M22.6562 6.25H2.34375C1.91228 6.25 1.5625 6.59978 1.5625 7.03125V17.9688C1.5625 18.4002 1.91228 18.75 2.34375 18.75H22.6562C23.0877 18.75 23.4375 18.4002 23.4375 17.9688V7.03125C23.4375 6.59978 23.0877 6.25 22.6562 6.25Z" stroke="#19191C" stroke-width="1.875" stroke-linecap="round" stroke-linejoin="round"/>
<path d="M12.5 15.625C14.2259 15.625 15.625 14.2259 15.625 12.5C15.625 10.7741 14.2259 9.375 12.5 9.375C10.7741 9.375 9.375 10.7741 9.375 12.5C9.375 14.2259 10.7741 15.625 12.5 15.625Z" stroke="#19191C" stroke-width="1.875" stroke-linecap="round" stroke-linejoin="round"/>
<path d="M17.1875 6.25L23.4375 11.7188" stroke="#19191C" stroke-width="1.875" stroke-linecap="round" stroke-linejoin="round"/>
<path d="M17.1875 18.75L23.4375 13.2812" stroke="#19191C" stroke-width="1.875" stroke-linecap="round" stroke-linejoin="round"/>
<path d="M7.8125 6.25L1.5625 11.7188" stroke="#19191C" stroke-width="1.875" stroke-linecap="round" stroke-linejoin="round"/>
<path d="M7.8125 18.75L1.5625 13.2812" stroke="#19191C" stroke-width="1.875" stroke-linecap="round" stroke-linejoin="round"/>
</g>
</g>
<defs>
<clipPath id="clip0_38_594">
<rect width="25" height="25" fill="white"/>
</clipPath>
<clipPath id="clip1_38_594">
<rect width="25" height="25" fill="white"/>
</clipPath>
</defs>
</svg>
