<svg width="33" height="36" viewBox="0 0 33 36" fill="none" xmlns="http://www.w3.org/2000/svg">
<path d="M16.4118 17.7795C14.9073 17.7795 13.6195 17.1992 12.5482 16.0386C11.4768 14.878 10.9412 13.4828 10.9412 11.853C10.9412 10.2232 11.4768 8.82801 12.5482 7.66741C13.6195 6.50681 14.9073 5.92651 16.4118 5.92651C17.9162 5.92651 19.204 6.50681 20.2754 7.66741C21.3467 8.82801 21.8823 10.2232 21.8823 11.853C21.8823 13.4828 21.3467 14.878 20.2754 16.0386C19.204 17.1992 17.9162 17.7795 16.4118 17.7795ZM5.47058 29.6324V25.4839C5.47058 24.6443 5.67003 23.8726 6.06893 23.1688C6.46782 22.4651 6.99779 21.928 7.65882 21.5576C9.07205 20.7921 10.5081 20.2179 11.9669 19.8352C13.4257 19.4524 14.9073 19.2611 16.4118 19.2611C17.9162 19.2611 19.3978 19.4524 20.8566 19.8352C22.3154 20.2179 23.7515 20.7921 25.1647 21.5576C25.8257 21.928 26.3557 22.4651 26.7546 23.1688C27.1535 23.8726 27.3529 24.6443 27.3529 25.4839V29.6324H5.47058ZM8.20588 26.6692H24.6176V25.4839C24.6176 25.2122 24.555 24.9653 24.4296 24.7431C24.3042 24.5208 24.139 24.348 23.9338 24.2245C22.7029 23.5578 21.4607 23.0577 20.207 22.7244C18.9533 22.391 17.6882 22.2243 16.4118 22.2243C15.1353 22.2243 13.8702 22.391 12.6165 22.7244C11.3629 23.0577 10.1206 23.5578 8.8897 24.2245C8.68455 24.348 8.51929 24.5208 8.39393 24.7431C8.26856 24.9653 8.20588 25.2122 8.20588 25.4839V26.6692ZM16.4118 14.8162C17.164 14.8162 17.8079 14.5261 18.3436 13.9458C18.8792 13.3655 19.1471 12.6679 19.1471 11.853C19.1471 11.0381 18.8792 10.3405 18.3436 9.7602C17.8079 9.1799 17.164 8.88975 16.4118 8.88975C15.6596 8.88975 15.0156 9.1799 14.48 9.7602C13.9443 10.3405 13.6765 11.0381 13.6765 11.853C13.6765 12.6679 13.9443 13.3655 14.48 13.9458C15.0156 14.5261 15.6596 14.8162 16.4118 14.8162Z" fill="#1D1B20"/>
</svg>
